<svg width="29" height="22" viewBox="0 0 29 22" fill="none" xmlns="http://www.w3.org/2000/svg">
<path d="M2414.11 742.331V36.8098L2624.75 0L2625.77 750.511C2625.77 792.433 2645.19 805.726 2660.53 805.726C2668.71 805.726 2676.89 804.703 2684.05 802.658L2708.59 944.785C2676.89 957.055 2643.15 962.168 2609.41 962.168C2477.51 962.168 2414.11 875.256 2414.11 742.331Z" fill="white"/>
<path d="M1604.3 520.45C1604.3 433.538 1602.25 359.919 1599.18 299.591H1774.03L1790.39 394.683H1792.43C1847.65 321.064 1929.45 283.231 2033.74 283.231C2174.85 283.231 2325.15 395.706 2325.15 610.43C2325.15 847.649 2158.49 958.078 2003.07 960.123C1920.25 961.145 1874.23 943.763 1845.6 918.201C1830.27 905.931 1816.97 890.593 1805.73 875.256L1801.64 878.323L1809.82 1030.68L1812.88 1208.59H1603.27V520.45H1604.3ZM1814.93 655.419C1814.93 667.689 1815.95 680.982 1816.97 693.252C1831.29 757.669 1888.55 803.681 1955.01 803.681C2050.1 803.681 2112.48 736.197 2112.48 623.722C2112.48 527.608 2061.35 444.786 1959.1 444.786C1890.59 445.808 1832.31 494.888 1818 561.35C1815.95 571.575 1814.93 582.822 1814.93 594.07V655.419Z" fill="white"/>
<path d="M796.524 520.45C796.524 433.538 794.479 359.919 791.411 299.591H966.258L982.618 394.683H984.663C1039.88 321.064 1121.68 283.231 1225.97 283.231C1367.08 283.231 1517.38 395.706 1517.38 610.43C1517.38 847.649 1350.72 958.078 1195.3 960.123C1112.47 961.145 1066.46 943.763 1037.83 918.201C1022.49 905.931 1009.2 890.593 997.955 875.256L993.865 878.323L1002.05 1030.68L1005.11 1208.59H796.524V520.45ZM1007.16 655.419C1007.16 667.689 1008.18 680.982 1009.2 693.252C1023.52 757.669 1080.78 803.681 1147.24 803.681C1242.33 803.681 1304.7 736.197 1304.7 623.722C1304.7 527.608 1253.58 444.786 1151.33 444.786C1082.82 445.808 1024.54 494.888 1010.23 561.35C1008.18 571.575 1007.16 582.822 1007.16 594.07V655.419V655.419Z" fill="white"/>
<path d="M2904.91 298.568L3012.27 610.429C3024.54 648.262 3032.72 677.914 3041.92 710.634L3040.9 749.489L3042.94 751.534C3053.17 715.746 3075.66 646.217 3085.89 608.384L3173.82 298.568H3404.91L3249.49 699.386C3135.99 1001.02 3069.53 1098.16 2993.86 1154.4C2900.82 1223.93 2806.75 1233.13 2748.47 1238.24L2719.84 1075.66C2759.71 1069.53 2798.57 1059.3 2836.4 1044.99C2876.28 1029.65 2907.97 994.887 2928.42 961.145C2934.56 949.898 2937.63 936.605 2936.6 923.313C2935.58 911.043 2932.51 897.75 2926.38 886.503L2669.73 298.568H2904.91V298.568Z" fill="white"/>
<path d="M507.157 946.831C498.977 928.426 493.865 907.976 491.82 887.526C492.842 881.391 494.887 874.233 496.932 868.098L494.887 864.008C450.92 929.448 374.233 962.168 291.411 962.168C148.261 962.168 69.5293 862.986 69.5293 763.804C69.5293 597.137 218.813 513.293 471.37 513.293H476.482L479.55 507.158C479.55 478.528 462.167 425.358 348.67 425.358C281.186 426.381 214.724 444.786 155.419 477.505L116.564 344.581C164.621 316.974 256.646 284.254 384.458 284.254C605.316 284.254 686.094 407.976 686.094 566.462V787.321C685.071 840.491 688.139 893.661 696.318 946.831H507.157ZM482.617 644.172C360.94 643.15 278.118 670.757 278.118 743.354C278.118 791.411 311.861 816.974 364.008 816.974C415.132 816.974 461.145 785.276 478.527 736.197C481.595 723.927 482.617 712.679 482.617 700.409V644.172Z" fill="white"/>
<path d="M3555.58 664.644C3620.48 664.644 3661.78 618.495 3661.78 556.962C3660.6 491.879 3619.3 448.096 3556.76 448.096C3495.4 448.096 3451.74 493.062 3451.74 556.962C3451.74 618.495 3494.22 664.644 3555.58 664.644ZM3555.58 959.205C3620.48 959.205 3661.78 913.055 3661.78 851.522C3660.6 786.439 3619.3 742.656 3556.76 742.656C3495.4 742.656 3451.74 787.622 3451.74 851.522C3451.74 913.055 3494.22 959.205 3555.58 959.205Z" fill="white"/>
</svg>
