<svg width="4000" height="2642" viewBox="0 0 4000 2642" fill="none" xmlns="http://www.w3.org/2000/svg">
<path d="M1414.88 2300.82L1375.21 2092.56H1358.68C1216.53 2261.15 985.124 2350.41 717.355 2350.41C254.545 2353.72 0 2033.05 0 1712.39C0 1170.24 489.256 899.17 1315.7 902.476V882.642C1315.7 790.08 1269.42 618.179 902.479 618.179C684.297 621.485 469.421 680.989 274.38 786.774L148.76 357.022C304.132 271.071 604.959 161.98 1014.88 161.98C1732.23 161.98 1990.08 561.98 1990.08 1074.38V1785.12C1986.78 1957.02 1996.69 2128.92 2023.14 2300.82H1414.88ZM1335.54 1322.31C942.149 1319.01 674.38 1408.26 674.38 1642.97C674.38 1798.34 783.471 1880.99 952.066 1880.99C1120.66 1880.99 1269.42 1778.51 1325.62 1619.83C1335.54 1580.16 1338.84 1543.8 1335.54 1504.13V1322.31Z" fill="white"/>
<path d="M2660.26 1387.35C2871.33 1387.35 3005.64 1237.27 3005.64 1037.15C3001.81 825.49 2867.49 683.101 2664.09 683.101C2464.54 683.101 2322.54 829.339 2322.54 1037.15C2322.54 1237.27 2460.7 1387.35 2660.26 1387.35ZM2660.26 2345.31C2871.33 2345.31 3005.64 2195.23 3005.64 1995.11C3001.81 1783.45 2867.49 1641.06 2664.09 1641.06C2464.54 1641.06 2322.54 1787.3 2322.54 1995.11C2322.54 2195.23 2460.7 2345.31 2660.26 2345.31Z" fill="white"/>
</svg>
