<?xml version="1.0" standalone="no"?>
<!DOCTYPE svg PUBLIC "-//W3C//DTD SVG 20010904//EN"
 "http://www.w3.org/TR/2001/REC-SVG-20010904/DTD/svg10.dtd">
<svg version="1.0" xmlns="http://www.w3.org/2000/svg"
 width="700.000000pt" height="700.000000pt" viewBox="0 0 700.000000 700.000000"
 preserveAspectRatio="xMidYMid meet">
<metadata>
Created by potrace 1.14, written by Peter Selinger 2001-2017
</metadata>
<g transform="translate(0.000000,700.000000) scale(0.100000,-0.100000)"
fill="#000000" stroke="none">
<path d="M0 3500 l0 -3500 3500 0 3500 0 0 3500 0 3500 -3500 0 -3500 0 0
-3500z m3115 1896 c574 -95 944 -379 1108 -852 42 -119 73 -268 87 -413 6 -59
10 -437 10 -890 0 -772 6 -962 35 -1191 8 -63 15 -120 15 -127 0 -10 -98 -13
-498 -13 l-498 0 -23 123 c-38 199 -42 217 -53 217 -6 0 -45 -33 -88 -73 -168
-162 -378 -266 -642 -319 -97 -20 -144 -23 -333 -23 -238 0 -313 10 -465 62
-383 131 -651 445 -711 833 -14 93 -6 309 15 406 94 434 412 744 936 912 295
95 585 138 1053 158 l147 6 0 42 c0 97 -59 219 -135 279 -56 44 -146 85 -242
109 -77 20 -114 23 -298 23 -162 0 -234 -4 -315 -19 -217 -39 -457 -116 -635
-206 -43 -22 -82 -36 -86 -32 -5 6 -197 657 -202 687 -5 24 277 143 475 199
199 58 341 83 658 120 92 11 589 -3 685 -18z m2490 -855 c259 -72 425 -364
375 -661 -50 -303 -287 -487 -600 -467 -304 20 -509 251 -510 573 0 214 89
389 253 495 131 85 310 107 482 60z m29 -1584 c168 -62 282 -192 333 -379 24
-87 23 -262 -1 -342 -58 -195 -196 -332 -383 -382 -79 -21 -232 -21 -313 1
-244 63 -400 280 -400 555 0 177 55 318 164 425 116 114 239 158 421 151 86
-3 125 -9 179 -29z"/>
<path d="M3003 3509 c-439 -28 -711 -144 -809 -344 -26 -55 -29 -69 -29 -175
0 -103 3 -121 26 -170 35 -76 77 -121 147 -158 162 -86 390 -82 580 10 97 48
225 177 275 279 46 94 53 152 49 392 l-3 177 -57 -1 c-31 -1 -112 -5 -179 -10z"/>
</g>
</svg>
